<svg xmlns="http://www.w3.org/2000/svg" width="77" height="72" fill="none"><path fill="#FFBD54" d="m75.474 24.928-3.219 2.976H4.824l-3.298-2.976v-7.126a2.943 2.943 0 0 1 2.943-2.943h68.063a2.943 2.943 0 0 1 2.942 2.943v7.126Z"/><path fill="#D99830" d="M72.531 14.859h-3.495a2.943 2.943 0 0 1 2.942 2.943v10.102l3.496-2.976v-7.126a2.943 2.943 0 0 0-2.943-2.943Z"/><path fill="#F4FBFF" d="M75.474 24.928H1.526v42.877a2.943 2.943 0 0 0 2.943 2.943h68.063a2.943 2.943 0 0 0 2.942-2.943V24.928Z"/><path fill="#DAF1F4" d="M71.979 24.928H1.526v3.233h66.7a3.752 3.752 0 0 1 3.753 3.752v35.892a2.943 2.943 0 0 1-2.943 2.943h3.495a2.943 2.943 0 0 0 2.943-2.943V24.928H71.98Z"/><path fill="#365E7D" d="M38.5 6.546a2.719 2.719 0 1 0 0-5.437 2.719 2.719 0 0 0 0 5.437Z"/><path fill="#000" d="M51.532 18.777H25.468a1.116 1.116 0 1 0 0 2.232h26.064a1.116 1.116 0 1 0 0-2.232ZM11.979 31.382H7.457a1.116 1.116 0 1 0 0 2.232h4.522a1.116 1.116 0 1 0 0-2.232Zm9.594 0h-4.521a1.116 1.116 0 1 0 0 2.232h4.521a1.116 1.116 0 1 0 0-2.232Zm9.594 0h-4.522a1.116 1.116 0 1 0 0 2.232h4.522a1.116 1.116 0 1 0 0-2.232Zm9.593 0h-4.52a1.116 1.116 0 1 0 0 2.232h4.52a1.116 1.116 0 1 0 0-2.232Zm9.595 0h-4.521a1.116 1.116 0 1 0 0 2.232h4.52a1.116 1.116 0 1 0 0-2.232Zm9.594 0h-4.522a1.116 1.116 0 1 0 0 2.232h4.522a1.116 1.116 0 1 0 0-2.232Zm9.594 0H65.02a1.116 1.116 0 1 0 0 2.232h4.522a1.116 1.116 0 1 0 0-2.232Zm-57.564 7.57H7.457a1.116 1.116 0 1 0 0 2.232h4.522a1.116 1.116 0 1 0 0-2.232Zm9.594 0h-4.521a1.116 1.116 0 1 0 0 2.232h4.521a1.116 1.116 0 1 0 0-2.232Zm9.594 0h-4.522a1.116 1.116 0 1 0 0 2.232h4.522a1.116 1.116 0 1 0 0-2.232Zm9.593 0h-4.52a1.116 1.116 0 1 0 0 2.232h4.52a1.116 1.116 0 1 0 0-2.232Zm9.595 0h-4.521a1.116 1.116 0 1 0 0 2.232h4.52a1.116 1.116 0 1 0 0-2.232Zm9.594 0h-4.522a1.116 1.116 0 1 0 0 2.232h4.522a1.116 1.116 0 1 0 0-2.232Zm9.594 0H65.02a1.116 1.116 0 1 0 0 2.232h4.522a1.116 1.116 0 1 0 0-2.232Zm-57.564 7.57H7.457a1.116 1.116 0 1 0 0 2.232h4.522a1.116 1.116 0 1 0 0-2.232Zm9.594 0h-4.521a1.116 1.116 0 1 0 0 2.232h4.521a1.116 1.116 0 1 0 0-2.232Zm9.594 0h-4.522a1.116 1.116 0 1 0 0 2.232h4.522a1.116 1.116 0 1 0 0-2.232Zm9.593 0h-4.52a1.116 1.116 0 1 0 0 2.232h4.52a1.116 1.116 0 1 0 0-2.232Zm9.595 0h-4.521a1.116 1.116 0 1 0 0 2.232h4.52a1.116 1.116 0 1 0 0-2.232Zm9.594 0h-4.522a1.116 1.116 0 1 0 0 2.232h4.522a1.116 1.116 0 1 0 0-2.232Zm9.594 0H65.02a1.116 1.116 0 1 0 0 2.232h4.522a1.116 1.116 0 1 0 0-2.232Zm-57.564 7.57H7.457a1.116 1.116 0 1 0 0 2.232h4.522a1.116 1.116 0 1 0 0-2.232Zm9.594 0h-4.521a1.116 1.116 0 1 0 0 2.232h4.521a1.116 1.116 0 1 0 0-2.232Zm9.594 0h-4.522a1.116 1.116 0 1 0 0 2.232h4.522a1.116 1.116 0 1 0 0-2.232Zm9.593 0h-4.52a1.116 1.116 0 1 0 0 2.232h4.52a1.116 1.116 0 1 0 0-2.232Zm9.595 0h-4.521a1.116 1.116 0 1 0 0 2.232h4.52a1.116 1.116 0 1 0 0-2.232Zm9.594 0h-4.522a1.116 1.116 0 1 0 0 2.232h4.522a1.116 1.116 0 1 0 0-2.232Zm9.594 0H65.02a1.116 1.116 0 1 0 0 2.232h4.522a1.116 1.116 0 1 0 0-2.232Zm-57.564 7.57H7.457a1.116 1.116 0 1 0 0 2.232h4.522a1.116 1.116 0 1 0 0-2.232Zm9.594 0h-4.521a1.116 1.116 0 1 0 0 2.232h4.521a1.116 1.116 0 1 0 0-2.232Zm9.594 0h-4.522a1.116 1.116 0 1 0 0 2.232h4.522a1.116 1.116 0 1 0 0-2.232Z"/><path fill="#000" d="M72.532 13.743h-4.545c-.189-.154 1.432.695-25.745-12.87a8.45 8.45 0 0 0-7.484 0C7.57 14.444 9.202 13.59 9.013 13.744H4.47a4.063 4.063 0 0 0-4.06 4.059v50.003a4.063 4.063 0 0 0 4.06 4.059h68.06a4.063 4.063 0 0 0 4.059-4.059V62.67a1.116 1.116 0 1 0-2.232 0v5.136a1.83 1.83 0 0 1-1.827 1.827H4.47a1.829 1.829 0 0 1-1.827-1.827V26.044h71.716v32.163a1.116 1.116 0 1 0 2.232 0V17.802a4.063 4.063 0 0 0-4.058-4.06Zm-32.43-9.916c0 .884-.718 1.603-1.602 1.603a1.604 1.604 0 0 1-1.603-1.603c0-.828.632-1.512 1.439-1.594.11-.003.219-.003.328 0a1.605 1.605 0 0 1 1.439 1.594ZM2.643 17.802c0-1.008.82-1.827 1.827-1.827h17.21a1.116 1.116 0 1 0 0-2.232h-7.73L34.69 3.402a3.837 3.837 0 0 0 3.81 4.26 3.838 3.838 0 0 0 3.81-4.26l20.738 10.34H26.143a1.116 1.116 0 1 0 0 2.233H72.53c1.008 0 1.827.82 1.827 1.827v6.01H2.642v-6.01Z"/></svg>