<svg xmlns="http://www.w3.org/2000/svg" width="112" height="113" fill="none"><path fill="#FFBD54" stroke="#000" d="M65.213 36.191a9.908 9.908 0 0 1 7.34 6.11 9.909 9.909 0 0 1-1.184 9.476l.406.293-.406-.293-5.043 6.996a6.071 6.071 0 0 1-3.11 2.253 6.07 6.07 0 0 1-3.841-.045 6.071 6.071 0 0 1-3.056-2.327 6.08 6.08 0 0 1-1.066-3.69 13.505 13.505 0 0 0-3.913-10.017l-.005-.004-.067-.066a6.07 6.07 0 0 1-1.743-3.423 6.073 6.073 0 0 1 .641-3.787 6.073 6.073 0 0 1 2.774-2.657l-.215-.451.215.451a6.07 6.07 0 0 1 3.81-.48l8.463 1.661ZM64.436 32.196a4.304 4.304 0 0 1-.839-1.34c-.754-1.91-.186-4.38 1.66-6.08 2.333-2.143 5.676-2.148 7.466-.2.897.975 1.306 2.292 1.13 3.73-.168 1.37-.856 2.684-1.951 3.692-1.096 1.008-2.463 1.585-3.843 1.637-1.447.055-2.726-.463-3.623-1.44ZM81.49 41.604c-3.485 1.377-7.194-.022-8.348-2.944-1.154-2.921.598-6.477 4.084-7.854 3.487-1.377 7.196.022 8.35 2.943 1.154 2.921-.598 6.478-4.085 7.855ZM75.534 49.564l.001.028c.028.508.138.995.318 1.451.843 2.132 3.25 3.653 6.047 3.498 1.608-.089 3.085-.712 4.167-1.742 1.13-1.076 1.693-2.452 1.615-3.878m-12.148.643 12.147-.643m-12.147.643c-.14-2.843 2.383-5.402 5.782-5.59 1.607-.09 3.144.367 4.333 1.271 1.242.945 1.954 2.25 2.032 3.676m-12.147.643 12.647-.67-.5.027m-1.73-4.073-.003.003.003-.003ZM69.332 58.625a4.429 4.429 0 0 0 .18 2.792c.615 1.556 2.062 2.886 3.994 3.404 3.057.814 6.02-.732 6.704-3.288l.01-.036c.655-2.55-1.142-5.346-4.184-6.16l-6.704 3.288Zm0 0c.683-2.555 3.647-4.102 6.704-3.287l-6.704 3.287Z"/><path fill="#5A6E7F" d="m3.82 97.404.47-.472 11.386 11.385-.277.275-3.02 3.015c-1.934 1.939-6.052.959-9.198-2.183-3.144-3.148-4.123-7.264-2.188-9.198l2.821-2.822h.005Z"/><path fill="#FFBD54" d="m7.076 94.194 11.386 11.378-2.786 2.745L4.29 96.932l.325-.326.009.006 2.452-2.418Z"/><path fill="#333" d="M67.636 0C92.138 0 112 19.867 112 44.37c0 24.504-19.862 44.367-44.364 44.367a44.141 44.141 0 0 1-24.553-7.418l-24.62 24.253L7.075 94.194l24.46-24.092c-5.187-7.26-8.27-16.13-8.27-25.731C23.265 19.867 43.126 0 67.635 0Zm-.607 75.567c17.227 0 31.197-13.965 31.197-31.196 0-17.232-13.97-31.197-31.197-31.197-17.231 0-31.198 13.965-31.198 31.197 0 17.23 13.967 31.196 31.198 31.196Z"/></svg>